<?xml version="1.0" encoding="utf-8"?>
<!-- Generator: Adobe Illustrator 26.5.0, SVG Export Plug-In . SVG Version: 6.00 Build 0)  -->
<svg version="1.1" id="Calque_1" xmlns="http://www.w3.org/2000/svg" xmlns:xlink="http://www.w3.org/1999/xlink" x="0px" y="0px"
	 viewBox="0 0 841.9 595.3" style="enable-background:new 0 0 841.9 595.3;" xml:space="preserve">
<style type="text/css">
	.st0{fill:#FFFFFF;}
</style>
<g>
	<g>
		<path class="st0" d="M420.8,555.1c-81.2,0-162.4-0.1-243.7,0.2c-9.6,0-14.2,0.3-14.1-12.4c0.6-163.8,0.5-327.7,0.1-491.5
			c0-10.6,3.2-12,12.5-11.9c163.8,0.3,327.6,0.3,491.3-0.1c10.6,0,12,3.2,11.9,12.5c-0.3,163.8-0.3,327.7,0.1,491.5
			c0,10.6-3.2,12-12.5,12C584.6,554.9,502.7,555.1,420.8,555.1z"/>
		<path d="M561.6,474.8c-75.2,0-146.7,0-221.2,0c13.5,14.6,20.7,28.8,4.9,42.8c-10.3,9-23.1,8.7-32.6-0.8
			c-13.7-13.7-8.2-27.7,4.4-39.4c-2.1-1.7-3.1-3.1-4-3.1c-42.5,0.5-36.4-9.6-26.6-38.1c14.1-40.8,15.2-80.2,2.6-122.3
			c-16-53.4-26.7-108.4-38.7-162.9c-3.8-17.5-12.3-24.4-30.2-23.8c-10,0.3-27.3,5.8-27.8-9.9c-0.5-16.8,17.2-11.6,28.1-12.8
			c24.4-2.7,45.5,0.1,50.1,30.7c1.8,11.6,12.3,8.1,19.6,8.2c75.9,0.2,151.8,0.1,227.7,0.1c37.3,0,74.6,0.6,111.8-0.3
			c14.6-0.3,19.9,2.5,17.5,18.8c-8.9,59.8-16.7,119.9-24.1,179.9c-1.4,11.4-5.6,15.7-17,17.2C517,370.6,428.1,383,339.1,395
			c-15.2,2.1-35.9,35.4-30,50c3.3,8,11.6,5,17.7,5c85.2,0.2,170.4,0.1,255.6,0.1c8,0,16-0.1,24,0.2c7.6,0.3,15.5,1.6,15.2,11.6
			c-0.3,9.5-8,11.2-15.7,11.6c-6.5,0.3-13.1,0.1-22.9,0.1c12.6,16.1,21.4,31,3.7,44.9c-10,7.9-21.9,7.2-31.1-1.6
			C541.3,503,548.1,489.5,561.6,474.8z"/>
	</g>
</g>
</svg>
