<?xml version="1.0" encoding="utf-8"?>
<!-- Generator: Adobe Illustrator 25.2.1, SVG Export Plug-In . SVG Version: 6.00 Build 0)  -->
<svg version="1.1" id="Calque_1" xmlns="http://www.w3.org/2000/svg" xmlns:xlink="http://www.w3.org/1999/xlink" x="0px" y="0px"
	 viewBox="0 0 1080 1080" style="enable-background:new 0 0 1080 1080;" xml:space="preserve">
<style type="text/css">
	.st0{fill:url(#SVGID_1_);}
	.st1{fill:url(#SVGID_2_);}
	.st2{fill:url(#SVGID_3_);}
	.st3{fill:url(#SVGID_4_);}
	.st4{fill:url(#SVGID_5_);}
	.st5{opacity:0.6;}
	.st6{fill:#E021EA;}
	.st7{opacity:0.8;}
	.st8{fill:url(#SVGID_6_);}
	.st9{fill:#C520ED;}
	.st10{fill:url(#SVGID_7_);}
</style>
<g>
	<linearGradient id="SVGID_1_" gradientUnits="userSpaceOnUse" x1="823.3524" y1="677.1915" x2="1080" y2="677.1915">
		<stop  offset="0" style="stop-color:#FA7FFF"/>
		<stop  offset="0.4287" style="stop-color:#FA7DFF"/>
		<stop  offset="0.5831" style="stop-color:#FA76FF"/>
		<stop  offset="0.6932" style="stop-color:#FB6BFF"/>
		<stop  offset="0.7821" style="stop-color:#FB5AFF"/>
		<stop  offset="0.8583" style="stop-color:#FC44FF"/>
		<stop  offset="0.9258" style="stop-color:#FD28FF"/>
		<stop  offset="0.9854" style="stop-color:#FF09FF"/>
		<stop  offset="1" style="stop-color:#FF00FF"/>
	</linearGradient>
	<path class="st0" d="M1059,640.7L906.7,835.6c-19.5,25-48.7,38-78.1,38c-1.7,0-3.5,0-5.2-0.2c1.7,0.1,3.3,0.1,5,0.1
		c27.2,0,52-11.1,69.9-29.1c17.9-17.9,29.1-42.7,29.1-69.9V496.5c16.2-10.5,34.9-15.8,53.7-15.8c21.3,0,42.8,6.9,60.9,21
		C1085,535.4,1092.7,597.6,1059,640.7z"/>
</g>
<g>
	
		<radialGradient id="SVGID_2_" cx="696.7214" cy="538.4731" r="277.3133" fx="655.6697" fy="550.0142" gradientUnits="userSpaceOnUse">
		<stop  offset="0" style="stop-color:#D447F5"/>
		<stop  offset="0.3404" style="stop-color:#D647EF"/>
		<stop  offset="0.7789" style="stop-color:#DB46DF"/>
		<stop  offset="0.9504" style="stop-color:#DD45D7"/>
	</radialGradient>
	<path class="st1" d="M907.6,247.9c-18.1-24.2-46.9-39.9-79.3-39.9c-27.2,0-52,11.1-69.9,29.1c-17.9,17.9-29.1,42.7-29.1,69.9v286.6
		l-187.5,240c-14.5,18.6-34.5,30.6-56,35.4c18.2-4.3,34.6-13.6,47.5-26.5c17.9-17.9,29.1-42.7,29.1-69.9v-287l187.5-240
		c19.5-24.9,48.7-38,78.2-38c21.3,0,42.8,6.8,60.8,20.9C896.1,234.4,902.4,240.9,907.6,247.9z"/>
</g>
<g>
	<radialGradient id="SVGID_3_" cx="271.3424" cy="537.827" r="303.1505" gradientUnits="userSpaceOnUse">
		<stop  offset="0" style="stop-color:#B800F3"/>
		<stop  offset="0.3316" style="stop-color:#B900ED"/>
		<stop  offset="0.7588" style="stop-color:#BB00DD"/>
		<stop  offset="1" style="stop-color:#BD00D1"/>
	</radialGradient>
	<path class="st2" d="M542.7,246c-18.1-24.2-46.9-39.9-79.3-39.9c-27.2,0-52,11.1-69.9,29.1s-29.1,42.7-29.1,69.9v286.6l-187.5,240
		c-19.5,24.9-48.7,38-78.2,38c-21.3,0-42.8-6.8-60.8-20.9c-42.9-33.5-50.6-96.1-17-139l364.2-466c19.5-24.9,48.7-38,78.2-38
		c21.3,0,42.8,6.8,60.8,20.9C531.2,232.5,537.5,239,542.7,246z"/>
</g>
<g>
	<linearGradient id="SVGID_4_" gradientUnits="userSpaceOnUse" x1="828.075" y1="180.9999" x2="828.075" y2="567.9132">
		<stop  offset="0" style="stop-color:#DA33F5"/>
		<stop  offset="0.1798" style="stop-color:#DB39F2"/>
		<stop  offset="0.4119" style="stop-color:#DC49EB"/>
		<stop  offset="0.6716" style="stop-color:#DF63DF"/>
		<stop  offset="0.8152" style="stop-color:#E175D7"/>
	</linearGradient>
	<path class="st3" d="M905.9,367.7l-176.6,226V307.1c0-27.2,11.1-52,29.1-69.9c17.9-17.9,42.7-29.1,69.9-29.1
		c32.3,0,61.2,15.7,79.3,39.9c0.5,0.6,0.9,1.3,1.4,1.9C933.2,284.6,933.3,332.7,905.9,367.7z"/>
</g>
<g>
	<radialGradient id="SVGID_5_" cx="828.496" cy="685.0881" r="209.4247" gradientUnits="userSpaceOnUse">
		<stop  offset="0" style="stop-color:#F079F5"/>
		<stop  offset="0.2904" style="stop-color:#F073F4"/>
		<stop  offset="0.6645" style="stop-color:#F263F0"/>
		<stop  offset="0.9972" style="stop-color:#F34FEB"/>
	</radialGradient>
	<path class="st4" d="M927.3,496.5v278.1c0,27.2-11.1,52-29.1,69.9c-17.9,17.9-42.7,29.1-69.9,29.1c-1.7,0-3.3,0-5-0.1
		c-0.2,0-0.5,0-0.7,0c-0.7,0-1.3-0.1-2-0.1c-1.3-0.1-2.7-0.2-4-0.4c-17.3-2.1-34.2-8.8-48.9-20.3c-43.1-33.7-50.7-95.9-17-139
		L903,518.8C910,509.8,918.2,502.4,927.3,496.5z"/>
</g>
<g class="st5">
	<path class="st6" d="M927.3,307.1v189.5c-9.1,5.8-17.3,13.3-24.3,22.2L750.7,713.7c-33.7,43.1-26,105.3,17,139
		c12.7,9.9,27,16.2,41.7,19.1c-45.5-8.9-80.1-49.1-80.1-97.1V593.7l176.6-226c27.3-35,27.3-83.1,3-117.8
		C920.5,266.1,927.3,285.8,927.3,307.1z"/>
</g>
<g class="st7">
	<linearGradient id="SVGID_6_" gradientUnits="userSpaceOnUse" x1="463.1768" y1="259.2559" x2="463.1768" y2="456.7756">
		<stop  offset="0" style="stop-color:#B800F3"/>
		<stop  offset="0.3316" style="stop-color:#B900ED"/>
		<stop  offset="0.7588" style="stop-color:#BB00DD"/>
		<stop  offset="1" style="stop-color:#BD00D1"/>
	</linearGradient>
	<path class="st8" d="M541.1,365.8l-176.6,226V305.2c0-27.2,11.1-52,29.1-69.9s42.7-29.1,69.9-29.1c32.3,0,61.2,15.7,79.3,39.9
		c0.5,0.6,0.9,1.3,1.4,1.9C568.3,282.7,568.4,330.8,541.1,365.8z"/>
</g>
<g class="st5">
	<path class="st9" d="M385.8,711.8c-33.5,42.9-25.8,105.4,17,139c18,14.1,39.5,20.9,60.8,20.9c5.6,0,11.2-0.5,16.8-1.4
		c-5.5,1-11.2,1.5-17,1.5c-54.4,0-99-44.5-99-99V591.8l176.6-226c27.3-35,27.3-83.1,3-117.8c11.5,16.2,18.3,35.9,18.3,57.2v180.6
		L385.8,711.8z"/>
</g>
<g>
	<linearGradient id="SVGID_7_" gradientUnits="userSpaceOnUse" x1="439.8717" y1="803.8123" x2="635.7473" y2="546.6209">
		<stop  offset="0" style="stop-color:#C633F5"/>
		<stop  offset="0.2919" style="stop-color:#C733EF"/>
		<stop  offset="0.668" style="stop-color:#CB34DF"/>
		<stop  offset="0.8152" style="stop-color:#CD35D7"/>
	</linearGradient>
	<path class="st10" d="M562.4,485.8v287c0,27.2-11.1,52-29.1,69.9c-12.9,12.9-29.2,22.2-47.5,26.5c-1,0.2-2.1,0.5-3.1,0.7
		c-0.8,0.2-1.6,0.3-2.4,0.4c-5.5,0.9-11.1,1.4-16.8,1.4c-21.3,0-42.8-6.8-60.8-20.9c-42.9-33.5-50.6-96.1-17-139L562.4,485.8z"/>
</g>
</svg>
