<?xml version="1.0" encoding="utf-8"?>
<!-- Generator: Adobe Illustrator 26.5.0, SVG Export Plug-In . SVG Version: 6.00 Build 0)  -->
<svg version="1.1" id="Calque_1" xmlns="http://www.w3.org/2000/svg" xmlns:xlink="http://www.w3.org/1999/xlink" x="0px" y="0px"
	 viewBox="0 0 1080 1080" style="enable-background:new 0 0 1080 1080;" xml:space="preserve">
<style type="text/css">
	.st0{opacity:0.74;}
	.st1{fill:#FFFFFF;}
</style>
<g class="st0">
	<path class="st1" d="M562.5,772.5V305.9c0-54.3-44.5-98.8-98.8-98.8h0c-54.3,0-98.8,44.5-98.8,98.8v466.6
		c0,54.3,44.5,98.8,98.8,98.8h0C518,871.3,562.5,826.9,562.5,772.5z"/>
</g>
<g class="st0">
	<path class="st1" d="M926.6,774.4V307.8c0-54.3-44.5-98.8-98.8-98.8h0c-54.3,0-98.8,44.5-98.8,98.8v466.6
		c0,54.3,44.5,98.8,98.8,98.8h0C882.2,873.2,926.6,828.8,926.6,774.4z"/>
</g>
<g>
	<path class="st1" d="M177.7,831.5l363.4-465.1c33.5-42.8,25.8-105.2-17-138.7l0,0c-42.8-33.5-105.2-25.8-138.7,17L22,709.8
		C-11.4,752.6-3.8,815,39,848.5l0,0C81.9,882,144.3,874.3,177.7,831.5z"/>
</g>
<g>
	<path class="st1" d="M541.9,833.4l363.4-465.1c33.5-42.8,25.8-105.2-17-138.7l0,0c-42.8-33.5-105.2-25.8-138.7,17L386.2,711.7
		c-33.5,42.8-25.8,105.2,17,138.7l0,0C446,883.9,508.4,876.2,541.9,833.4z"/>
</g>
<g>
	<path class="st1" d="M906.1,835.3l152-194.5c33.6-43,26-105.1-17-138.7l0,0c-43-33.6-105.1-26-138.7,17l-152,194.5
		c-33.6,43-26,105.1,17,138.7l0,0C810.4,885.9,872.5,878.3,906.1,835.3z"/>
</g>
</svg>
